:SAMPLES-PER-SECOND 24
:FULLY-SPECIFIED
:DEGREES
232
root  -6.27929 40.4496 -37.8034 67.6884 -34.2299 -54.8241
RightUpLeg  -22.3926 11.5914 -17.9873
RightLeg  75.7978 -3.32947 -16.0482
RightFoot  -10.1159 -0.0712656 0.398932
RightToes  -2.09809e-008 3.77894e-005 6.81332e-007
Spine  -1.65738 3.15407 -13.0401
Spine1  0.653082 -3.46746 35.7195
HEad  -23.9657 -0.640426 17.4439
LeftShoulder1  5.43222 -11.3091 -30.6651
LeftArm  9.00276 13.3656 -32.9244
LeftForeArm  159.797 -72.387 -148.15
LeftHand  -0.338128 -2.88833 4.97339
RightShoulder  3.1854 5.60866 29.0281
RightArm  14.7141 -26.648 24.562
RightForeArm  162.77 72.2533 148.831
RightHand  0.290002 11.0863 1.61065
LeftUpLeg  -28.423 -7.69387 41.1201
LeftLeg  23.8192 31.3989 14.3997
LeftFoot  -12.42 0.0916147 1.83355
LeftToes  1.24773e-006 1.46318e-008 1.32523e-009
233
root  -6.74312 40.3269 -37.7951 64.5321 -35.2328 -51.6361
RightUpLeg  -26.5364 8.25011 -10.734
RightLeg  72.3935 -4.13962 -15.3291
RightFoot  -13.1688 -0.0467547 2.29731
RightToes  -2.09809e-008 3.77894e-005 6.81332e-007
Spine  -0.696006 2.38684 -12.8353
Spine1  -0.184366 -3.66291 34.3258
HEad  -23.04 4.41461 14.7254
LeftShoulder1  5.55406 -11.4494 -31.1407
LeftArm  9.35105 18.2756 -34.1966
LeftForeArm  160.634 -71.9019 -149.142
LeftHand  -0.332289 -2.91453 4.87715
RightShoulder  3.26068 5.67849 29.5951
RightArm  15.1282 -27.9343 25.3801
RightForeArm  165.262 71.5171 150.456
RightHand  0.459043 11.4077 2.731
LeftUpLeg  -28.4131 -8.31083 38.5853
LeftLeg  24.7385 29.4362 14.1665
LeftFoot  -13.6898 0.100948 0.906346
LeftToes  1.24773e-006 1.46318e-008 1.32523e-009
234
root  -7.28515 40.1694 -37.8291 61.0904 -35.8204 -47.8139
RightUpLeg  -29.6197 6.78431 -4.41192
RightLeg  62.3554 -3.96453 -8.7949
RightFoot  -14.1021 0.0954518 7.97279
RightToes  -2.09809e-008 3.77894e-005 6.81332e-007
Spine  -1.01818 1.19871 -13.1026
Spine1  0.439504 -4.80579 33.3243
HEad  -22.6459 9.091 11.412
LeftShoulder1  5.72698 -11.6274 -31.8498
LeftArm  9.46211 21.1041 -34.6296
LeftForeArm  160.701 -71.9709 -149.03
LeftHand  -0.355756 -2.78485 5.27881
RightShoulder  3.28891 5.70815 29.7913
RightArm  15.2469 -27.6402 25.6484
RightForeArm  166.6 71.1364 151.254
RightHand  0.488822 11.3563 2.94668
LeftUpLeg  -28.7983 -9.35334 36.215
LeftLeg  25.92 27.8497 14.1716
LeftFoot  -14.9902 0.0873476 -0.0850246
LeftToes  1.24773e-006 1.46318e-008 1.32523e-009
235
root  -7.95924 39.9723 -37.8999 56.795 -36.0583 -42.9516
RightUpLeg  -30.8762 7.93329 -0.733213
RightLeg  46.7899 -2.94157 -3.67724
RightFoot  -14.5276 0.237655 12.061
RightToes  -2.09809e-008 3.77894e-005 6.81332e-007
Spine  -1.15628 0.00501179 -14.0983
Spine1  0.819754 -5.79628 32.1462
HEad  -22.7754 12.4199 8.32805
LeftShoulder1  5.83238 -11.7331 -32.2808
LeftArm  10.5291 21.903 -34.7561
LeftForeArm  160.8 -72.2379 -148.571
LeftHand  -0.357942 -2.90873 5.23924
RightShoulder  3.30883 5.723 29.9526
RightArm  14.8113 -27.7321 25.5991
RightForeArm  165.813 71.0091 151.34
RightHand  0.368921 10.9603 2.18609
LeftUpLeg  -29.1469 -10.8475 33.6436
LeftLeg  26.9509 25.8884 13.8567
LeftFoot  -16.4195 0.0343835 -1.44348
LeftToes  1.24773e-006 1.46318e-008 1.32523e-009
236
root  -8.76792 39.7923 -37.8526 51.3463 -35.6521 -37.3372
RightUpLeg  -29.7405 11.8351 -0.463477
RightLeg  27.1441 -3.83541 -2.2533
RightFoot  -15.3086 0.318082 12.1438
RightToes  -2.09809e-008 3.77894e-005 6.81332e-007
Spine  -1.45041 -0.952997 -15.4239
Spine1  1.92857 -6.61541 31.245
HEad  -24.0399 13.9222 5.00782
LeftShoulder1  5.97415 -11.9021 -32.7808
LeftArm  12.0189 20.2961 -34.6958
LeftForeArm  161.101 -72.3829 -148.355
LeftHand  -0.280931 -3.15668 4.05619
RightShoulder  3.32089 5.73256 30.0466
RightArm  13.2206 -28.1337 25.8186
RightForeArm  164.227 71.1569 150.885
RightHand  0.252948 10.699 1.39982
LeftUpLeg  -28.359 -12.6079 30.6429
LeftLeg  26.9825 23.503 12.7497
LeftFoot  -17.8837 -0.0219529 -2.26788
LeftToes  1.24773e-006 1.46318e-008 1.32523e-009
237
root  -9.68513 39.6095 -37.646 45.0947 -33.2623 -30.9329
RightUpLeg  -27.4955 11.1 0.235161
RightLeg  8.52365 -0.737353 -2.32288
RightFoot  -14.4041 0.208903 11.4817
RightToes  -2.09809e-008 3.77894e-005 6.81332e-007
Spine  -1.52253 -2.19396 -15.8803
Spine1  2.88451 -7.80422 30.6566
HEad  -25.0882 14.097 1.90442
LeftShoulder1  5.98145 -11.9405 -32.7315
LeftArm  13.7271 17.7996 -35.0256
LeftForeArm  161.435 -72.4217 -148.336
LeftHand  -0.209984 -3.36748 3.03365
RightShoulder  3.40264 5.84178 30.511
RightArm  11.2399 -28.8893 26.0486
RightForeArm  163.315 71.2957 150.534
RightHand  0.193072 10.7596 0.963774
LeftUpLeg  -27.3021 -15.0448 27.9366
LeftLeg  26.3669 20.8294 11.1735
LeftFoot  -19.3518 -0.0539277 -2.42944
LeftToes  1.24773e-006 1.46318e-008 1.32523e-009
238
root  -10.6011 39.4365 -37.4209 39.5269 -29.2576 -25.65
RightUpLeg  -27.9071 7.29214 1.80352
RightLeg  0.84292 6.81638 -2.07688
RightFoot  -13.8995 0.194606 12.8907
RightToes  -2.09809e-008 3.77894e-005 6.81332e-007
Spine  -1.4745 -3.00071 -14.3471
Spine1  3.617 -8.6435 29.6818
HEad  -25.9369 13.2714 -1.07945
LeftShoulder1  5.88576 -11.8768 -32.2688
LeftArm  15.7219 14.6046 -35.7032
LeftForeArm  160.41 -72.7853 -147.496
LeftHand  -0.27625 -3.42722 3.88518
RightShoulder  3.49284 5.95678 31.0262
RightArm  9.24311 -29.7453 26.709
RightForeArm  162.11 71.3447 150.281
RightHand  0.112263 10.4071 0.406709
LeftUpLeg  -26.5108 -17.6775 26.5301
LeftLeg  26.4422 17.7123 9.6721
LeftFoot  -20.5017 -0.115997 -2.98056
LeftToes  1.24773e-006 1.46318e-008 1.32523e-009
239
root  -11.5446 39.2671 -37.2827 34.3143 -25.8021 -21.871
RightUpLeg  -29.4794 6.99558 1.50566
RightLeg  1.84005 11.1467 -1.34767
RightFoot  -14.0976 0.247534 14.218
RightToes  -2.09809e-008 3.77894e-005 6.81332e-007
Spine  -0.719052 -2.73512 -12.414
Spine1  4.26359 -8.2289 27.9185
HEad  -27.0435 11.8632 -4.09474
LeftShoulder1  6.02543 -12.0287 -32.7937
LeftArm  16.6671 11.135 -35.9391
LeftForeArm  158.469 -73.1587 -146.451
LeftHand  -0.358203 -3.20181 5.08373
RightShoulder  3.56189 6.02858 31.4785
RightArm  7.63753 -29.1093 27.4225
RightForeArm  160.882 71.8669 149.224
RightHand  -0.00162699 9.83332 -0.418906
LeftUpLeg  -25.1643 -19.5793 25.2105
LeftLeg  28.1629 14.4086 8.55237
LeftFoot  -21.303 -0.211276 -3.88836
LeftToes  1.24773e-006 1.46318e-008 1.32523e-009
240
root  -12.6405 38.9968 -37.1626 27.7183 -21.8042 -17.0314
RightUpLeg  -28.5351 6.02864 -0.118873
RightLeg  4.5499 10.7579 -1.41669
RightFoot  -11.4214 -0.065975 14.0082
RightToes  -2.09809e-008 3.77894e-005 6.81332e-007
Spine  1.0534 -2.84273 -12.3217
Spine1  4.94173 -8.3307 26.3708
HEad  -26.9276 10.7375 -6.40621
LeftShoulder1  6.14168 -12.1313 -33.2808
LeftArm  16.0741 9.32653 -36.1461
LeftForeArm  157.762 -73.0321 -146.589
LeftHand  -0.270496 -2.97495 3.9794
RightShoulder  3.65813 6.16353 31.9559
RightArm  6.88961 -27.1784 28.2871
RightForeArm  160.092 73.0373 146.942
RightHand  -0.0310703 9.7905 -0.642587
LeftUpLeg  -23.0733 -21.8688 22.4504
LeftLeg  30.5907 10.8367 7.19486
LeftFoot  -22.3 -0.310988 -4.63449
LeftToes  1.24773e-006 1.46318e-008 1.32523e-009
